<svg width="26" height="26" viewBox="0 0 26 26" fill="none" xmlns="http://www.w3.org/2000/svg">
<path d="M13 1C6.38331 1 1 6.38331 1 13C1 19.6167 6.38331 25 13 25C19.6167 25 25 19.6167 25 13C25 6.38331 19.6167 1 13 1ZM13 23.9786C6.94632 23.9786 2.02135 19.0532 2.02135 13C2.02135 6.94677 6.94632 2.02135 13 2.02135C19.0537 2.02135 23.9786 6.94677 23.9786 13C23.9786 19.0532 19.0537 23.9786 13 23.9786Z" fill="black" stroke="black" stroke-width="0.5"/>
<path d="M12.9999 5.59558C12.718 5.59558 12.4893 5.82413 12.4893 6.10625V19.8936C12.4893 20.1756 12.7178 20.4043 12.9999 20.4043C13.2819 20.4043 13.5106 20.1757 13.5106 19.8936V6.10625C13.5106 5.8243 13.2819 5.59558 12.9999 5.59558Z" fill="black" stroke="black" stroke-width="0.5"/>
<path d="M19.8937 12.4884H6.10638C5.82443 12.4884 5.5957 12.717 5.5957 12.9991C5.5957 13.281 5.82426 13.5098 6.10638 13.5098H19.8937C20.1757 13.5098 20.4044 13.2812 20.4044 12.9991C20.4044 12.7171 20.1757 12.4884 19.8937 12.4884Z" fill="black" stroke="black" stroke-width="0.5"/>
</svg>
