<svg width="12" height="14" viewBox="0 0 12 14" fill="none" xmlns="http://www.w3.org/2000/svg">
<path d="M2.66667 6.33398H4V7.66732H2.66667V6.33398ZM12 3.00065V12.334C12 13.0673 11.4 13.6673 10.6667 13.6673H1.33333C0.593333 13.6673 0 13.0673 0 12.334L0.00666666 3.00065C0.00666666 2.26732 0.593333 1.66732 1.33333 1.66732H2V0.333984H3.33333V1.66732H8.66667V0.333984H10V1.66732H10.6667C11.4 1.66732 12 2.26732 12 3.00065ZM1.33333 4.33398H10.6667V3.00065H1.33333V4.33398ZM10.6667 12.334V5.66732H1.33333V12.334H10.6667ZM8 7.66732H9.33333V6.33398H8V7.66732ZM5.33333 7.66732H6.66667V6.33398H5.33333V7.66732Z" fill="white"/>
</svg>
