<svg width="14" height="14" viewBox="0 0 14 14" fill="none" xmlns="http://www.w3.org/2000/svg">
<path d="M13.6668 2.8002L10.6002 0.200195L9.7335 1.2002L12.8002 3.8002L13.6668 2.8002ZM4.26683 1.26686L3.40016 0.266862L0.333496 2.8002L1.20016 3.8002L4.26683 1.26686ZM7.3335 4.33353H6.3335V8.33353L9.46683 10.2669L10.0002 9.46686L7.3335 7.86686V4.33353ZM7.00016 1.66686C3.66683 1.66686 1.00016 4.33353 1.00016 7.66686C1.00016 11.0002 3.66683 13.6669 7.00016 13.6669C10.3335 13.6669 13.0002 11.0002 13.0002 7.66686C13.0002 4.33353 10.3335 1.66686 7.00016 1.66686ZM7.00016 12.3335C4.40016 12.3335 2.3335 10.2669 2.3335 7.66686C2.3335 5.06686 4.40016 3.0002 7.00016 3.0002C9.60016 3.0002 11.6668 5.06686 11.6668 7.66686C11.6668 10.2669 9.60016 12.3335 7.00016 12.3335Z" fill="white"/>
</svg>
