<svg width="31" height="20" viewBox="0 0 31 20" fill="none" xmlns="http://www.w3.org/2000/svg">
<path d="M29.8911 12.2222C30.1847 12.2222 30.4663 12.1052 30.6739 11.8968C30.8815 11.6884 30.9981 11.4058 30.9981 11.1111V1.61111C30.9981 1.18382 30.829 0.774025 30.528 0.471883C30.2269 0.169741 29.8186 0 29.3929 0H1.60526C1.17952 0 0.771215 0.169741 0.47017 0.471883C0.169125 0.774025 0 1.18382 0 1.61111V5.08889C0.00660747 5.48653 0.159518 5.86766 0.429303 6.15894C0.699088 6.45022 1.06668 6.63107 1.46134 6.66667C2.34219 6.66667 3.18695 7.01786 3.80981 7.64298C4.43266 8.2681 4.78257 9.11595 4.78257 10C4.78257 10.8841 4.43266 11.7319 3.80981 12.357C3.18695 12.9821 2.34219 13.3333 1.46134 13.3333C1.06668 13.3689 0.699088 13.5498 0.429303 13.8411C0.159518 14.1323 0.00660747 14.5135 0 14.9111V18.3889C0 18.8162 0.169125 19.226 0.47017 19.5281C0.771215 19.8303 1.17952 20 1.60526 20H29.3929C29.8186 20 30.2269 19.8303 30.528 19.5281C30.829 19.226 30.9981 18.8162 30.9981 18.3889V15.5556C30.9981 15.2609 30.8815 14.9783 30.6739 14.7699C30.4663 14.5615 30.1847 14.4444 29.8911 14.4444C29.5975 14.4444 29.3159 14.5615 29.1082 14.7699C28.9006 14.9783 28.784 15.2609 28.784 15.5556V17.7778H13.2849V17.2222C13.2849 16.9275 13.1683 16.6449 12.9607 16.4365C12.753 16.2282 12.4715 16.1111 12.1778 16.1111C11.8842 16.1111 11.6026 16.2282 11.395 16.4365C11.1874 16.6449 11.0708 16.9275 11.0708 17.2222V17.7778H2.21415V15.4444C3.46547 15.1894 4.59046 14.5081 5.39852 13.5158C6.20658 12.5236 6.64801 11.2815 6.64801 10C6.64801 8.71849 6.20658 7.47639 5.39852 6.48416C4.59046 5.49192 3.46547 4.81057 2.21415 4.55556V2.22222H11.0708V2.77778C11.0708 3.07246 11.1874 3.35508 11.395 3.56345C11.6026 3.77183 11.8842 3.88889 12.1778 3.88889C12.4715 3.88889 12.753 3.77183 12.9607 3.56345C13.1683 3.35508 13.2849 3.07246 13.2849 2.77778V2.22222H28.784V11.1111C28.784 11.4058 28.9006 11.6884 29.1082 11.8968C29.3159 12.1052 29.5975 12.2222 29.8911 12.2222Z" fill="#231F20"/>
<path d="M12.1781 10.4219C11.8845 10.4219 11.6029 10.5389 11.3953 10.7473C11.1877 10.9557 11.071 11.2383 11.071 11.533V14.1552C11.071 14.4499 11.1877 14.7325 11.3953 14.9409C11.6029 15.1493 11.8845 15.2663 12.1781 15.2663C12.4717 15.2663 12.7533 15.1493 12.9609 14.9409C13.1686 14.7325 13.2852 14.4499 13.2852 14.1552V11.533C13.2852 11.2383 13.1686 10.9557 12.9609 10.7473C12.7533 10.5389 12.4717 10.4219 12.1781 10.4219Z" fill="#231F20"/>
<path d="M13.2852 5.84353C13.2852 5.54885 13.1686 5.26623 12.9609 5.05786C12.7533 4.84949 12.4717 4.73242 12.1781 4.73242C11.8845 4.73242 11.6029 4.84949 11.3953 5.05786C11.1877 5.26623 11.071 5.54885 11.071 5.84353V8.46576C11.071 8.76045 11.1877 9.04306 11.3953 9.25144C11.6029 9.45981 11.8845 9.57687 12.1781 9.57687C12.4717 9.57687 12.7533 9.45981 12.9609 9.25144C13.1686 9.04306 13.2852 8.76045 13.2852 8.46576V5.84353Z" fill="#231F20"/>
<path d="M15.8197 15.2329C15.9226 15.337 16.045 15.4197 16.1799 15.4761C16.3148 15.5325 16.4595 15.5616 16.6057 15.5616C16.7518 15.5616 16.8965 15.5325 17.0314 15.4761C17.1663 15.4197 17.2888 15.337 17.3917 15.2329L26.2483 6.344C26.3515 6.2404 26.4334 6.11741 26.4893 5.98206C26.5452 5.8467 26.5739 5.70162 26.5739 5.55511C26.5739 5.4086 26.5452 5.26352 26.4893 5.12817C26.4334 4.99281 26.3515 4.86982 26.2483 4.76622C26.1451 4.66262 26.0226 4.58044 25.8877 4.52438C25.7528 4.46831 25.6083 4.43945 25.4623 4.43945C25.3163 4.43945 25.1718 4.46831 25.0369 4.52438C24.902 4.58044 24.7795 4.66262 24.6763 4.76622L15.8197 13.6551C15.7159 13.7584 15.6335 13.8813 15.5773 14.0167C15.5211 14.1521 15.4922 14.2973 15.4922 14.444C15.4922 14.5907 15.5211 14.7359 15.5773 14.8713C15.6335 15.0067 15.7159 15.1296 15.8197 15.2329Z" fill="#231F20"/>
<path d="M16.6063 6.66558C16.9 6.66558 17.1815 6.54852 17.3892 6.34015C17.5968 6.13177 17.7134 5.84916 17.7134 5.55447C17.7134 5.25979 17.5968 4.97717 17.3892 4.7688C17.1815 4.56042 16.9 4.44336 16.6063 4.44336C16.3127 4.44336 16.0311 4.56042 15.8235 4.7688C15.6159 4.97717 15.4993 5.25979 15.4993 5.55447C15.4993 5.84916 15.6159 6.13177 15.8235 6.34015C16.0311 6.54852 16.3127 6.66558 16.6063 6.66558Z" fill="#231F20"/>
<path d="M25.463 15.5562C25.7566 15.5562 26.0382 15.4391 26.2459 15.2308C26.4535 15.0224 26.5701 14.7398 26.5701 14.4451C26.5701 14.1504 26.4535 13.8678 26.2459 13.6594C26.0382 13.451 25.7566 13.334 25.463 13.334C25.1694 13.334 24.8878 13.451 24.6802 13.6594C24.4726 13.8678 24.356 14.1504 24.356 14.4451C24.356 14.7398 24.4726 15.0224 24.6802 15.2308C24.8878 15.4391 25.1694 15.5562 25.463 15.5562Z" fill="#231F20"/>
</svg>
