<svg width="30" height="30" viewBox="0 0 30 30" fill="none" xmlns="http://www.w3.org/2000/svg">
<path d="M11.25 11.25H13.125V22.5H11.25V11.25Z" fill="#777777"/>
<path d="M16.875 11.25H18.75V22.5H16.875V11.25Z" fill="#777777"/>
<path d="M3.75 5.625V7.5H5.625V26.25C5.625 26.7473 5.82254 27.2242 6.17417 27.5758C6.52581 27.9275 7.00272 28.125 7.5 28.125H22.5C22.9973 28.125 23.4742 27.9275 23.8258 27.5758C24.1775 27.2242 24.375 26.7473 24.375 26.25V7.5H26.25V5.625H3.75ZM7.5 26.25V7.5H22.5V26.25H7.5Z" fill="#777777"/>
<path d="M11.25 1.875H18.75V3.75H11.25V1.875Z" fill="#777777"/>
</svg>
