<svg width="12" height="12" viewBox="0 0 12 12" fill="none" xmlns="http://www.w3.org/2000/svg">
<path d="M1.22708 11.9992H9.7101C10.0356 11.9989 10.3477 11.8694 10.5779 11.6392C10.8082 11.409 10.9376 11.0969 10.9379 10.7714V5.86015C10.9379 5.67519 10.788 5.5253 10.603 5.5253C10.4181 5.5253 10.2682 5.67519 10.2682 5.86015V10.7714C10.2681 10.9194 10.2092 11.0612 10.1046 11.1658C9.99991 11.2705 9.85809 11.3294 9.7101 11.3295H1.22707C1.07908 11.3294 0.937273 11.2705 0.832619 11.1658C0.727976 11.0612 0.669077 10.9194 0.668977 10.7714V2.28836C0.669077 2.14036 0.727976 1.99855 0.832619 1.8939C0.937263 1.78926 1.07908 1.73036 1.22707 1.73026H6.1383C6.32327 1.73026 6.47315 1.58037 6.47315 1.3954C6.47315 1.21043 6.32327 1.06055 6.1383 1.06055H1.22707C0.90158 1.06085 0.589456 1.1903 0.359228 1.42051C0.129 1.65071 -0.000451781 1.96286 -0.000732422 2.28835V10.7714C-0.000433437 11.0969 0.129023 11.409 0.359228 11.6392C0.589433 11.8694 0.901583 11.9989 1.22708 11.9992Z" fill="black"/>
<path d="M3.64516 6.38538L3.59284 7.59186C3.58318 7.80483 3.66121 8.01251 3.80861 8.16658C3.956 8.32066 4.15999 8.40776 4.37328 8.40756C4.38464 8.40756 4.3959 8.40736 4.40687 8.40686L5.61375 8.35434C5.80919 8.34617 5.99445 8.26475 6.13258 8.12612L10.5555 3.70296L11.7057 2.5532C11.8941 2.36484 11.9999 2.10933 11.9999 1.84282C11.9999 1.57634 11.8941 1.3208 11.7057 1.13244L10.8668 0.293296C10.6782 0.105437 10.4227 -0.000101977 10.1565 7.39404e-08C9.89024 7.39404e-08 9.63483 0.105539 9.44627 0.293602L8.2961 1.44357L3.87268 5.86698H3.87258C3.73455 6.00521 3.65333 6.19018 3.64506 6.38541L3.64516 6.38538ZM9.9198 0.767451H9.9197C10.0504 0.636797 10.2623 0.636697 10.3933 0.767251L11.2322 1.60639H11.2321C11.2949 1.66908 11.3302 1.75419 11.3302 1.84299C11.3302 1.93178 11.2949 2.01689 11.2321 2.07968L10.3186 2.99286L9.00629 1.68045L9.9198 0.767451ZM4.31411 6.41446H4.31401C4.31541 6.38656 4.32707 6.36015 4.3467 6.34032L8.53285 2.15392L9.84525 3.46632L5.6586 7.65298C5.63906 7.67271 5.61265 7.68417 5.58495 7.68527L4.37806 7.73779C4.34647 7.74078 4.31538 7.72872 4.29395 7.7053C4.27202 7.68318 4.26026 7.65278 4.26166 7.62159L4.31411 6.41446Z" fill="black"/>
</svg>
