<svg width="187" height="30" viewBox="0 0 187 30" fill="none" xmlns="http://www.w3.org/2000/svg">
<circle cx="15" cy="15" r="14.5" stroke="white"/>
<line x1="15" y1="14.5" x2="60" y2="14.5" stroke="white"/>
<path d="M71 15.5L59.75 21.9952L59.75 9.00481L71 15.5Z" fill="white"/>
<path d="M84.004 14.464H88.552V15.004H84.004V14.464ZM84.076 18.448H89.26V19H83.464V10.6H89.08V11.152H84.076V18.448ZM92.5041 19L95.1081 15.616L95.0961 15.904L92.6361 12.736H93.3201L95.4681 15.508H95.2161L97.3521 12.736H98.0241L95.5401 15.94L95.5521 15.616L98.1921 19H97.4841L95.2161 16.048L95.4441 16.072L93.1881 19H92.5041ZM105.267 19.048C104.715 19.048 104.215 18.92 103.767 18.664C103.327 18.408 102.975 18.044 102.711 17.572C102.455 17.092 102.327 16.524 102.327 15.868C102.327 15.212 102.455 14.648 102.711 14.176C102.975 13.696 103.327 13.328 103.767 13.072C104.215 12.816 104.715 12.688 105.267 12.688C105.859 12.688 106.387 12.824 106.851 13.096C107.323 13.36 107.691 13.732 107.955 14.212C108.227 14.692 108.363 15.244 108.363 15.868C108.363 16.492 108.227 17.044 107.955 17.524C107.691 18.004 107.323 18.38 106.851 18.652C106.387 18.916 105.859 19.048 105.267 19.048ZM102.123 21.328V12.736H102.699V14.788L102.603 15.88L102.723 16.972V21.328H102.123ZM105.231 18.508C105.711 18.508 106.143 18.4 106.527 18.184C106.911 17.96 107.211 17.648 107.427 17.248C107.651 16.848 107.763 16.388 107.763 15.868C107.763 15.34 107.651 14.88 107.427 14.488C107.211 14.088 106.911 13.78 106.527 13.564C106.143 13.34 105.711 13.228 105.231 13.228C104.751 13.228 104.319 13.34 103.935 13.564C103.559 13.78 103.259 14.088 103.035 14.488C102.819 14.88 102.711 15.34 102.711 15.868C102.711 16.388 102.819 16.848 103.035 17.248C103.259 17.648 103.559 17.96 103.935 18.184C104.319 18.4 104.751 18.508 105.231 18.508ZM112.62 19V10.096H113.22V19H112.62ZM120.597 19.048C119.997 19.048 119.461 18.912 118.989 18.64C118.525 18.368 118.153 17.992 117.873 17.512C117.601 17.032 117.465 16.484 117.465 15.868C117.465 15.244 117.601 14.696 117.873 14.224C118.153 13.744 118.525 13.368 118.989 13.096C119.461 12.824 119.997 12.688 120.597 12.688C121.197 12.688 121.733 12.824 122.205 13.096C122.677 13.368 123.049 13.744 123.321 14.224C123.593 14.696 123.729 15.244 123.729 15.868C123.729 16.484 123.593 17.032 123.321 17.512C123.049 17.992 122.677 18.368 122.205 18.64C121.733 18.912 121.197 19.048 120.597 19.048ZM120.597 18.508C121.077 18.508 121.509 18.4 121.893 18.184C122.277 17.96 122.577 17.648 122.793 17.248C123.009 16.848 123.117 16.388 123.117 15.868C123.117 15.34 123.009 14.88 122.793 14.488C122.577 14.088 122.277 13.78 121.893 13.564C121.509 13.34 121.077 13.228 120.597 13.228C120.117 13.228 119.685 13.34 119.301 13.564C118.925 13.78 118.625 14.088 118.401 14.488C118.185 14.88 118.077 15.34 118.077 15.868C118.077 16.388 118.185 16.848 118.401 17.248C118.625 17.648 118.925 17.96 119.301 18.184C119.685 18.4 120.117 18.508 120.597 18.508ZM127.991 19V12.736H128.567V14.452L128.507 14.26C128.683 13.756 128.979 13.368 129.395 13.096C129.811 12.824 130.331 12.688 130.955 12.688V13.276C130.931 13.276 130.907 13.276 130.883 13.276C130.859 13.268 130.835 13.264 130.811 13.264C130.115 13.264 129.571 13.484 129.179 13.924C128.787 14.356 128.591 14.96 128.591 15.736V19H127.991ZM137.493 19.048C136.861 19.048 136.301 18.912 135.813 18.64C135.333 18.368 134.953 17.992 134.673 17.512C134.401 17.032 134.265 16.484 134.265 15.868C134.265 15.244 134.393 14.696 134.649 14.224C134.913 13.744 135.273 13.368 135.729 13.096C136.185 12.824 136.697 12.688 137.265 12.688C137.833 12.688 138.341 12.82 138.789 13.084C139.245 13.348 139.601 13.72 139.857 14.2C140.121 14.672 140.253 15.22 140.253 15.844C140.253 15.868 140.249 15.896 140.241 15.928C140.241 15.952 140.241 15.98 140.241 16.012H134.709V15.544H139.917L139.677 15.772C139.685 15.284 139.581 14.848 139.365 14.464C139.157 14.072 138.873 13.768 138.513 13.552C138.153 13.328 137.737 13.216 137.265 13.216C136.801 13.216 136.385 13.328 136.017 13.552C135.657 13.768 135.373 14.072 135.165 14.464C134.957 14.848 134.853 15.288 134.853 15.784V15.892C134.853 16.404 134.965 16.86 135.189 17.26C135.421 17.652 135.737 17.96 136.137 18.184C136.537 18.4 136.993 18.508 137.505 18.508C137.905 18.508 138.277 18.436 138.621 18.292C138.973 18.148 139.269 17.928 139.509 17.632L139.857 18.028C139.585 18.364 139.241 18.62 138.825 18.796C138.417 18.964 137.973 19.048 137.493 19.048ZM150.184 19V10.6H150.7L154.6 17.332H154.324L158.212 10.6H158.716L158.728 19H158.128L158.116 11.524H158.284L154.6 17.884H154.3L150.604 11.524H150.784V19H150.184ZM166.312 19.048C165.712 19.048 165.176 18.912 164.704 18.64C164.24 18.368 163.868 17.992 163.588 17.512C163.316 17.032 163.18 16.484 163.18 15.868C163.18 15.244 163.316 14.696 163.588 14.224C163.868 13.744 164.24 13.368 164.704 13.096C165.176 12.824 165.712 12.688 166.312 12.688C166.912 12.688 167.448 12.824 167.92 13.096C168.392 13.368 168.764 13.744 169.036 14.224C169.308 14.696 169.444 15.244 169.444 15.868C169.444 16.484 169.308 17.032 169.036 17.512C168.764 17.992 168.392 18.368 167.92 18.64C167.448 18.912 166.912 19.048 166.312 19.048ZM166.312 18.508C166.792 18.508 167.224 18.4 167.608 18.184C167.992 17.96 168.292 17.648 168.508 17.248C168.724 16.848 168.832 16.388 168.832 15.868C168.832 15.34 168.724 14.88 168.508 14.488C168.292 14.088 167.992 13.78 167.608 13.564C167.224 13.34 166.792 13.228 166.312 13.228C165.832 13.228 165.4 13.34 165.016 13.564C164.64 13.78 164.34 14.088 164.116 14.488C163.9 14.88 163.792 15.34 163.792 15.868C163.792 16.388 163.9 16.848 164.116 17.248C164.34 17.648 164.64 17.96 165.016 18.184C165.4 18.4 165.832 18.508 166.312 18.508ZM173.706 19V12.736H174.282V14.452L174.222 14.26C174.398 13.756 174.694 13.368 175.11 13.096C175.526 12.824 176.046 12.688 176.67 12.688V13.276C176.646 13.276 176.622 13.276 176.598 13.276C176.574 13.268 176.55 13.264 176.526 13.264C175.83 13.264 175.286 13.484 174.894 13.924C174.502 14.356 174.306 14.96 174.306 15.736V19H173.706ZM183.208 19.048C182.576 19.048 182.016 18.912 181.528 18.64C181.048 18.368 180.668 17.992 180.388 17.512C180.116 17.032 179.98 16.484 179.98 15.868C179.98 15.244 180.108 14.696 180.364 14.224C180.628 13.744 180.988 13.368 181.444 13.096C181.9 12.824 182.412 12.688 182.98 12.688C183.548 12.688 184.056 12.82 184.504 13.084C184.96 13.348 185.316 13.72 185.572 14.2C185.836 14.672 185.968 15.22 185.968 15.844C185.968 15.868 185.964 15.896 185.956 15.928C185.956 15.952 185.956 15.98 185.956 16.012H180.424V15.544H185.632L185.392 15.772C185.4 15.284 185.296 14.848 185.08 14.464C184.872 14.072 184.588 13.768 184.228 13.552C183.868 13.328 183.452 13.216 182.98 13.216C182.516 13.216 182.1 13.328 181.732 13.552C181.372 13.768 181.088 14.072 180.88 14.464C180.672 14.848 180.568 15.288 180.568 15.784V15.892C180.568 16.404 180.68 16.86 180.904 17.26C181.136 17.652 181.452 17.96 181.852 18.184C182.252 18.4 182.708 18.508 183.22 18.508C183.62 18.508 183.992 18.436 184.336 18.292C184.688 18.148 184.984 17.928 185.224 17.632L185.572 18.028C185.3 18.364 184.956 18.62 184.54 18.796C184.132 18.964 183.688 19.048 183.208 19.048Z" fill="white"/>
</svg>
