<svg width="20" height="20" viewBox="0 0 20 20" fill="none" xmlns="http://www.w3.org/2000/svg">
<path d="M9.91889 4.98438C9.42443 4.98437 8.94108 5.131 8.52996 5.4057C8.11884 5.6804 7.79841 6.07085 7.60919 6.52767C7.41997 6.98448 7.37046 7.48715 7.46692 7.9721C7.56339 8.45705 7.80149 8.90251 8.15112 9.25214C8.50075 9.60177 8.94621 9.83988 9.43116 9.93634C9.91611 10.0328 10.4188 9.98329 10.8756 9.79407C11.3324 9.60485 11.7229 9.28442 11.9976 8.8733C12.2723 8.46218 12.4189 7.97883 12.4189 7.48437C12.4181 6.82157 12.1545 6.18612 11.6858 5.71744C11.2171 5.24876 10.5817 4.98513 9.91889 4.98438ZM9.91889 8.73437C9.67166 8.73437 9.42998 8.66106 9.22442 8.52371C9.01886 8.38636 8.85865 8.19114 8.76404 7.96273C8.66943 7.73432 8.64467 7.48299 8.6929 7.24051C8.74113 6.99804 8.86019 6.77531 9.035 6.60049C9.20982 6.42568 9.43255 6.30662 9.67502 6.25839C9.9175 6.21016 10.1688 6.23492 10.3972 6.32953C10.6256 6.42414 10.8209 6.58435 10.9582 6.78991C11.0956 6.99547 11.1689 7.23715 11.1689 7.48437C11.1685 7.81578 11.0367 8.1335 10.8023 8.36784C10.568 8.60217 10.2503 8.73399 9.91889 8.73437Z" fill="white"/>
<path d="M14.7229 2.67676C13.5351 1.48928 11.9495 0.783866 10.2722 0.696669C8.59493 0.609471 6.94478 1.14667 5.64026 2.20459C4.33575 3.2625 3.46934 4.76614 3.20827 6.42529C2.94719 8.08444 3.30996 9.7815 4.22654 11.1889L8.94947 18.4394C9.05457 18.6008 9.19828 18.7333 9.36756 18.8251C9.53685 18.9168 9.72635 18.9649 9.91891 18.9649C10.1115 18.9649 10.301 18.9168 10.4702 18.8251C10.6395 18.7333 10.7832 18.6008 10.8883 18.4394L15.6114 11.1889C16.4619 9.88333 16.8378 8.32508 16.676 6.77533C16.5142 5.22559 15.8247 3.77855 14.7229 2.67676ZM14.5641 10.5066L9.91893 17.6375L5.27373 10.5066C3.85186 8.32383 4.15682 5.40274 5.99885 3.56063C6.51363 3.04583 7.12478 2.63747 7.79739 2.35886C8.47 2.08025 9.1909 1.93685 9.91893 1.93685C10.647 1.93685 11.3679 2.08025 12.0405 2.35886C12.7131 2.63747 13.3242 3.04583 13.839 3.56063C15.681 5.40274 15.986 8.32383 14.5641 10.5066Z" fill="white"/>
</svg>
