<svg width="17" height="17" viewBox="0 0 17 17" fill="none" xmlns="http://www.w3.org/2000/svg">
<path d="M15.1111 13.6944H1.88891C1.76367 13.6944 1.64356 13.6447 1.555 13.5561C1.46644 13.4676 1.41669 13.3475 1.41669 13.2222C1.41669 13.097 1.46644 12.9769 1.555 12.8883C1.64356 12.7998 1.76367 12.75 1.88891 12.75H15.1111C15.2364 12.75 15.3565 12.7998 15.445 12.8883C15.5336 12.9769 15.5834 13.097 15.5834 13.2222C15.5834 13.3475 15.5336 13.4676 15.445 13.5561C15.3565 13.6447 15.2364 13.6944 15.1111 13.6944Z" fill="black"/>
<path d="M15.1111 8.97228H1.88891C1.76367 8.97228 1.64356 8.92253 1.555 8.83397C1.46644 8.74541 1.41669 8.6253 1.41669 8.50005C1.41669 8.37481 1.46644 8.2547 1.555 8.16614C1.64356 8.07758 1.76367 8.02783 1.88891 8.02783H15.1111C15.2364 8.02783 15.3565 8.07758 15.445 8.16614C15.5336 8.2547 15.5834 8.37481 15.5834 8.50005C15.5834 8.6253 15.5336 8.74541 15.445 8.83397C15.3565 8.92253 15.2364 8.97228 15.1111 8.97228Z" fill="black"/>
<path d="M15.1111 4.25011H1.88891C1.76367 4.25011 1.64356 4.20036 1.555 4.1118C1.46644 4.02324 1.41669 3.90313 1.41669 3.77789C1.41669 3.65265 1.46644 3.53253 1.555 3.44397C1.64356 3.35542 1.76367 3.30566 1.88891 3.30566H15.1111C15.2364 3.30566 15.3565 3.35542 15.445 3.44397C15.5336 3.53253 15.5834 3.65265 15.5834 3.77789C15.5834 3.90313 15.5336 4.02324 15.445 4.1118C15.3565 4.20036 15.2364 4.25011 15.1111 4.25011Z" fill="black"/>
</svg>
