<svg width="331" height="201" viewBox="0 0 331 201" fill="none" xmlns="http://www.w3.org/2000/svg">
<rect width="331" height="201" rx="6" fill="white"/>
<path d="M67.316 168V158.2H71.348C72.216 158.2 72.958 158.34 73.574 158.62C74.1993 158.9 74.68 159.301 75.016 159.824C75.352 160.347 75.52 160.967 75.52 161.686C75.52 162.405 75.352 163.025 75.016 163.548C74.68 164.071 74.1993 164.472 73.574 164.752C72.958 165.032 72.216 165.172 71.348 165.172H68.324L69.136 164.318V168H67.316ZM69.136 164.514L68.324 163.632H71.264C72.0667 163.632 72.6687 163.464 73.07 163.128C73.4807 162.783 73.686 162.302 73.686 161.686C73.686 161.061 73.4807 160.58 73.07 160.244C72.6687 159.908 72.0667 159.74 71.264 159.74H68.324L69.136 158.844V164.514ZM81.7071 168V166.488L81.6091 166.166V163.52C81.6091 163.007 81.4551 162.61 81.1471 162.33C80.8391 162.041 80.3725 161.896 79.7471 161.896C79.3271 161.896 78.9118 161.961 78.5011 162.092C78.0998 162.223 77.7591 162.405 77.4791 162.638L76.7931 161.364C77.1945 161.056 77.6705 160.827 78.2211 160.678C78.7811 160.519 79.3598 160.44 79.9571 160.44C81.0398 160.44 81.8751 160.701 82.4631 161.224C83.0605 161.737 83.3591 162.535 83.3591 163.618V168H81.7071ZM79.3551 168.098C78.7951 168.098 78.3051 168.005 77.8851 167.818C77.4651 167.622 77.1385 167.356 76.9051 167.02C76.6811 166.675 76.5691 166.287 76.5691 165.858C76.5691 165.438 76.6671 165.06 76.8631 164.724C77.0685 164.388 77.3998 164.122 77.8571 163.926C78.3145 163.73 78.9211 163.632 79.6771 163.632H81.8471V164.794H79.8031C79.2058 164.794 78.8045 164.892 78.5991 165.088C78.3938 165.275 78.2911 165.508 78.2911 165.788C78.2911 166.105 78.4171 166.357 78.6691 166.544C78.9211 166.731 79.2711 166.824 79.7191 166.824C80.1485 166.824 80.5311 166.726 80.8671 166.53C81.2125 166.334 81.4598 166.045 81.6091 165.662L81.9031 166.712C81.7351 167.151 81.4318 167.491 80.9931 167.734C80.5638 167.977 80.0178 168.098 79.3551 168.098ZM86.0843 170.814C85.7203 170.814 85.3563 170.753 84.9923 170.632C84.6283 170.511 84.325 170.343 84.0823 170.128L84.7823 168.84C84.9596 168.999 85.1603 169.125 85.3843 169.218C85.6083 169.311 85.837 169.358 86.0703 169.358C86.3876 169.358 86.6443 169.279 86.8403 169.12C87.0363 168.961 87.2183 168.695 87.3863 168.322L87.8203 167.342L87.9603 167.132L90.7883 160.524H92.4683L88.9683 168.602C88.735 169.162 88.4736 169.605 88.1843 169.932C87.9043 170.259 87.587 170.487 87.2323 170.618C86.887 170.749 86.5043 170.814 86.0843 170.814ZM87.6243 168.266L84.2503 160.524H86.0703L88.8143 166.978L87.6243 168.266ZM102.998 160.44C103.595 160.44 104.123 160.557 104.58 160.79C105.047 161.023 105.411 161.383 105.672 161.868C105.933 162.344 106.064 162.96 106.064 163.716V168H104.314V163.94C104.314 163.277 104.169 162.783 103.88 162.456C103.591 162.129 103.175 161.966 102.634 161.966C102.251 161.966 101.911 162.05 101.612 162.218C101.323 162.386 101.094 162.633 100.926 162.96C100.767 163.287 100.688 163.702 100.688 164.206V168H98.9381V163.94C98.9381 163.277 98.7934 162.783 98.5041 162.456C98.2147 162.129 97.7994 161.966 97.2581 161.966C96.8754 161.966 96.5347 162.05 96.2361 162.218C95.9467 162.386 95.7181 162.633 95.5501 162.96C95.3914 163.287 95.3121 163.702 95.3121 164.206V168H93.5621V160.524H95.2281V162.512L94.9341 161.924C95.1861 161.439 95.5501 161.07 96.0261 160.818C96.5114 160.566 97.0621 160.44 97.6781 160.44C98.3781 160.44 98.9847 160.613 99.4981 160.958C100.021 161.303 100.366 161.826 100.534 162.526L99.8481 162.288C100.091 161.728 100.492 161.28 101.052 160.944C101.612 160.608 102.261 160.44 102.998 160.44ZM111.828 168.098C110.997 168.098 110.269 167.935 109.644 167.608C109.028 167.272 108.547 166.815 108.202 166.236C107.866 165.657 107.698 164.999 107.698 164.262C107.698 163.515 107.861 162.857 108.188 162.288C108.524 161.709 108.981 161.257 109.56 160.93C110.148 160.603 110.815 160.44 111.562 160.44C112.29 160.44 112.939 160.599 113.508 160.916C114.077 161.233 114.525 161.681 114.852 162.26C115.179 162.839 115.342 163.52 115.342 164.304C115.342 164.379 115.337 164.463 115.328 164.556C115.328 164.649 115.323 164.738 115.314 164.822H109.084V163.66H114.39L113.704 164.024C113.713 163.595 113.625 163.217 113.438 162.89C113.251 162.563 112.995 162.307 112.668 162.12C112.351 161.933 111.982 161.84 111.562 161.84C111.133 161.84 110.755 161.933 110.428 162.12C110.111 162.307 109.859 162.568 109.672 162.904C109.495 163.231 109.406 163.618 109.406 164.066V164.346C109.406 164.794 109.509 165.191 109.714 165.536C109.919 165.881 110.209 166.147 110.582 166.334C110.955 166.521 111.385 166.614 111.87 166.614C112.29 166.614 112.668 166.549 113.004 166.418C113.34 166.287 113.639 166.082 113.9 165.802L114.838 166.88C114.502 167.272 114.077 167.575 113.564 167.79C113.06 167.995 112.481 168.098 111.828 168.098ZM121.265 160.44C121.862 160.44 122.394 160.557 122.861 160.79C123.337 161.023 123.71 161.383 123.981 161.868C124.252 162.344 124.387 162.96 124.387 163.716V168H122.637V163.94C122.637 163.277 122.478 162.783 122.161 162.456C121.853 162.129 121.419 161.966 120.859 161.966C120.448 161.966 120.084 162.05 119.767 162.218C119.45 162.386 119.202 162.638 119.025 162.974C118.857 163.301 118.773 163.716 118.773 164.22V168H117.023V160.524H118.689V162.54L118.395 161.924C118.656 161.448 119.034 161.084 119.529 160.832C120.033 160.571 120.612 160.44 121.265 160.44ZM129.421 168.098C128.6 168.098 127.965 167.888 127.517 167.468C127.069 167.039 126.845 166.409 126.845 165.578V158.872H128.595V165.536C128.595 165.891 128.684 166.166 128.861 166.362C129.048 166.558 129.304 166.656 129.631 166.656C130.023 166.656 130.35 166.553 130.611 166.348L131.101 167.594C130.896 167.762 130.644 167.888 130.345 167.972C130.046 168.056 129.738 168.098 129.421 168.098ZM125.613 161.98V160.58H130.597V161.98H125.613ZM139.574 168.098C138.855 168.098 138.206 167.939 137.628 167.622C137.058 167.295 136.61 166.847 136.284 166.278C135.957 165.709 135.794 165.037 135.794 164.262C135.794 163.487 135.957 162.815 136.284 162.246C136.61 161.677 137.058 161.233 137.628 160.916C138.206 160.599 138.855 160.44 139.574 160.44C140.199 160.44 140.759 160.58 141.254 160.86C141.748 161.131 142.14 161.546 142.43 162.106C142.719 162.666 142.864 163.385 142.864 164.262C142.864 165.13 142.724 165.849 142.444 166.418C142.164 166.978 141.776 167.398 141.282 167.678C140.787 167.958 140.218 168.098 139.574 168.098ZM139.784 166.6C140.204 166.6 140.577 166.507 140.904 166.32C141.24 166.133 141.506 165.863 141.702 165.508C141.907 165.153 142.01 164.738 142.01 164.262C142.01 163.777 141.907 163.361 141.702 163.016C141.506 162.661 141.24 162.391 140.904 162.204C140.577 162.017 140.204 161.924 139.784 161.924C139.364 161.924 138.986 162.017 138.65 162.204C138.323 162.391 138.057 162.661 137.852 163.016C137.656 163.361 137.558 163.777 137.558 164.262C137.558 164.738 137.656 165.153 137.852 165.508C138.057 165.863 138.323 166.133 138.65 166.32C138.986 166.507 139.364 166.6 139.784 166.6ZM142.052 168V166.236L142.122 164.248L141.982 162.26V157.612H143.718V168H142.052ZM149.381 168.098C148.616 168.098 147.934 167.935 147.337 167.608C146.74 167.272 146.268 166.815 145.923 166.236C145.578 165.657 145.405 164.999 145.405 164.262C145.405 163.515 145.578 162.857 145.923 162.288C146.268 161.709 146.74 161.257 147.337 160.93C147.934 160.603 148.616 160.44 149.381 160.44C150.156 160.44 150.842 160.603 151.439 160.93C152.046 161.257 152.517 161.705 152.853 162.274C153.198 162.843 153.371 163.506 153.371 164.262C153.371 164.999 153.198 165.657 152.853 166.236C152.517 166.815 152.046 167.272 151.439 167.608C150.842 167.935 150.156 168.098 149.381 168.098ZM149.381 166.6C149.81 166.6 150.193 166.507 150.529 166.32C150.865 166.133 151.126 165.863 151.313 165.508C151.509 165.153 151.607 164.738 151.607 164.262C151.607 163.777 151.509 163.361 151.313 163.016C151.126 162.661 150.865 162.391 150.529 162.204C150.193 162.017 149.815 161.924 149.395 161.924C148.966 161.924 148.583 162.017 148.247 162.204C147.92 162.391 147.659 162.661 147.463 163.016C147.267 163.361 147.169 163.777 147.169 164.262C147.169 164.738 147.267 165.153 147.463 165.508C147.659 165.863 147.92 166.133 148.247 166.32C148.583 166.507 148.961 166.6 149.381 166.6ZM159.286 160.44C159.884 160.44 160.416 160.557 160.882 160.79C161.358 161.023 161.732 161.383 162.002 161.868C162.273 162.344 162.408 162.96 162.408 163.716V168H160.658V163.94C160.658 163.277 160.5 162.783 160.182 162.456C159.874 162.129 159.44 161.966 158.88 161.966C158.47 161.966 158.106 162.05 157.788 162.218C157.471 162.386 157.224 162.638 157.046 162.974C156.878 163.301 156.794 163.716 156.794 164.22V168H155.044V160.524H156.71V162.54L156.416 161.924C156.678 161.448 157.056 161.084 157.55 160.832C158.054 160.571 158.633 160.44 159.286 160.44ZM168.156 168.098C167.325 168.098 166.597 167.935 165.972 167.608C165.356 167.272 164.875 166.815 164.53 166.236C164.194 165.657 164.026 164.999 164.026 164.262C164.026 163.515 164.189 162.857 164.516 162.288C164.852 161.709 165.309 161.257 165.888 160.93C166.476 160.603 167.143 160.44 167.89 160.44C168.618 160.44 169.267 160.599 169.836 160.916C170.405 161.233 170.853 161.681 171.18 162.26C171.507 162.839 171.67 163.52 171.67 164.304C171.67 164.379 171.665 164.463 171.656 164.556C171.656 164.649 171.651 164.738 171.642 164.822H165.412V163.66H170.718L170.032 164.024C170.041 163.595 169.953 163.217 169.766 162.89C169.579 162.563 169.323 162.307 168.996 162.12C168.679 161.933 168.31 161.84 167.89 161.84C167.461 161.84 167.083 161.933 166.756 162.12C166.439 162.307 166.187 162.568 166 162.904C165.823 163.231 165.734 163.618 165.734 164.066V164.346C165.734 164.794 165.837 165.191 166.042 165.536C166.247 165.881 166.537 166.147 166.91 166.334C167.283 166.521 167.713 166.614 168.198 166.614C168.618 166.614 168.996 166.549 169.332 166.418C169.668 166.287 169.967 166.082 170.228 165.802L171.166 166.88C170.83 167.272 170.405 167.575 169.892 167.79C169.388 167.995 168.809 168.098 168.156 168.098ZM179.53 168.098C178.905 168.098 178.303 168.019 177.724 167.86C177.155 167.692 176.702 167.491 176.366 167.258L177.038 165.928C177.374 166.143 177.776 166.32 178.242 166.46C178.709 166.6 179.176 166.67 179.642 166.67C180.193 166.67 180.59 166.595 180.832 166.446C181.084 166.297 181.21 166.096 181.21 165.844C181.21 165.639 181.126 165.485 180.958 165.382C180.79 165.27 180.571 165.186 180.3 165.13C180.03 165.074 179.726 165.023 179.39 164.976C179.064 164.929 178.732 164.869 178.396 164.794C178.07 164.71 177.771 164.593 177.5 164.444C177.23 164.285 177.01 164.075 176.842 163.814C176.674 163.553 176.59 163.207 176.59 162.778C176.59 162.302 176.726 161.891 176.996 161.546C177.267 161.191 177.645 160.921 178.13 160.734C178.625 160.538 179.208 160.44 179.88 160.44C180.384 160.44 180.893 160.496 181.406 160.608C181.92 160.72 182.344 160.879 182.68 161.084L182.008 162.414C181.654 162.199 181.294 162.055 180.93 161.98C180.576 161.896 180.221 161.854 179.866 161.854C179.334 161.854 178.938 161.933 178.676 162.092C178.424 162.251 178.298 162.451 178.298 162.694C178.298 162.918 178.382 163.086 178.55 163.198C178.718 163.31 178.938 163.399 179.208 163.464C179.479 163.529 179.778 163.585 180.104 163.632C180.44 163.669 180.772 163.73 181.098 163.814C181.425 163.898 181.724 164.015 181.994 164.164C182.274 164.304 182.498 164.505 182.666 164.766C182.834 165.027 182.918 165.368 182.918 165.788C182.918 166.255 182.778 166.661 182.498 167.006C182.228 167.351 181.84 167.622 181.336 167.818C180.832 168.005 180.23 168.098 179.53 168.098ZM187.589 168.098C186.955 168.098 186.395 167.981 185.909 167.748C185.424 167.505 185.046 167.141 184.775 166.656C184.505 166.161 184.369 165.541 184.369 164.794V160.524H186.119V164.556C186.119 165.228 186.269 165.732 186.567 166.068C186.875 166.395 187.309 166.558 187.869 166.558C188.28 166.558 188.635 166.474 188.933 166.306C189.241 166.138 189.479 165.886 189.647 165.55C189.825 165.214 189.913 164.799 189.913 164.304V160.524H191.663V168H189.997V165.984L190.291 166.6C190.039 167.085 189.671 167.459 189.185 167.72C188.7 167.972 188.168 168.098 187.589 168.098ZM197.385 168.098C196.601 168.098 195.901 167.935 195.285 167.608C194.678 167.272 194.202 166.815 193.857 166.236C193.511 165.657 193.339 164.999 193.339 164.262C193.339 163.515 193.511 162.857 193.857 162.288C194.202 161.709 194.678 161.257 195.285 160.93C195.901 160.603 196.601 160.44 197.385 160.44C198.113 160.44 198.752 160.589 199.303 160.888C199.863 161.177 200.287 161.607 200.577 162.176L199.233 162.96C199.009 162.605 198.733 162.344 198.407 162.176C198.089 162.008 197.744 161.924 197.371 161.924C196.941 161.924 196.554 162.017 196.209 162.204C195.863 162.391 195.593 162.661 195.397 163.016C195.201 163.361 195.103 163.777 195.103 164.262C195.103 164.747 195.201 165.167 195.397 165.522C195.593 165.867 195.863 166.133 196.209 166.32C196.554 166.507 196.941 166.6 197.371 166.6C197.744 166.6 198.089 166.516 198.407 166.348C198.733 166.18 199.009 165.919 199.233 165.564L200.577 166.348C200.287 166.908 199.863 167.342 199.303 167.65C198.752 167.949 198.113 168.098 197.385 168.098ZM205.41 168.098C204.626 168.098 203.926 167.935 203.31 167.608C202.703 167.272 202.227 166.815 201.882 166.236C201.537 165.657 201.364 164.999 201.364 164.262C201.364 163.515 201.537 162.857 201.882 162.288C202.227 161.709 202.703 161.257 203.31 160.93C203.926 160.603 204.626 160.44 205.41 160.44C206.138 160.44 206.777 160.589 207.328 160.888C207.888 161.177 208.313 161.607 208.602 162.176L207.258 162.96C207.034 162.605 206.759 162.344 206.432 162.176C206.115 162.008 205.769 161.924 205.396 161.924C204.967 161.924 204.579 162.017 204.234 162.204C203.889 162.391 203.618 162.661 203.422 163.016C203.226 163.361 203.128 163.777 203.128 164.262C203.128 164.747 203.226 165.167 203.422 165.522C203.618 165.867 203.889 166.133 204.234 166.32C204.579 166.507 204.967 166.6 205.396 166.6C205.769 166.6 206.115 166.516 206.432 166.348C206.759 166.18 207.034 165.919 207.258 165.564L208.602 166.348C208.313 166.908 207.888 167.342 207.328 167.65C206.777 167.949 206.138 168.098 205.41 168.098ZM213.519 168.098C212.689 168.098 211.961 167.935 211.335 167.608C210.719 167.272 210.239 166.815 209.893 166.236C209.557 165.657 209.389 164.999 209.389 164.262C209.389 163.515 209.553 162.857 209.879 162.288C210.215 161.709 210.673 161.257 211.251 160.93C211.839 160.603 212.507 160.44 213.253 160.44C213.981 160.44 214.63 160.599 215.199 160.916C215.769 161.233 216.217 161.681 216.543 162.26C216.87 162.839 217.033 163.52 217.033 164.304C217.033 164.379 217.029 164.463 217.019 164.556C217.019 164.649 217.015 164.738 217.005 164.822H210.775V163.66H216.081L215.395 164.024C215.405 163.595 215.316 163.217 215.129 162.89C214.943 162.563 214.686 162.307 214.359 162.12C214.042 161.933 213.673 161.84 213.253 161.84C212.824 161.84 212.446 161.933 212.119 162.12C211.802 162.307 211.55 162.568 211.363 162.904C211.186 163.231 211.097 163.618 211.097 164.066V164.346C211.097 164.794 211.2 165.191 211.405 165.536C211.611 165.881 211.9 166.147 212.273 166.334C212.647 166.521 213.076 166.614 213.561 166.614C213.981 166.614 214.359 166.549 214.695 166.418C215.031 166.287 215.33 166.082 215.591 165.802L216.529 166.88C216.193 167.272 215.769 167.575 215.255 167.79C214.751 167.995 214.173 168.098 213.519 168.098ZM221.024 168.098C220.399 168.098 219.797 168.019 219.218 167.86C218.649 167.692 218.196 167.491 217.86 167.258L218.532 165.928C218.868 166.143 219.27 166.32 219.736 166.46C220.203 166.6 220.67 166.67 221.136 166.67C221.687 166.67 222.084 166.595 222.326 166.446C222.578 166.297 222.704 166.096 222.704 165.844C222.704 165.639 222.62 165.485 222.452 165.382C222.284 165.27 222.065 165.186 221.794 165.13C221.524 165.074 221.22 165.023 220.884 164.976C220.558 164.929 220.226 164.869 219.89 164.794C219.564 164.71 219.265 164.593 218.994 164.444C218.724 164.285 218.504 164.075 218.336 163.814C218.168 163.553 218.084 163.207 218.084 162.778C218.084 162.302 218.22 161.891 218.49 161.546C218.761 161.191 219.139 160.921 219.624 160.734C220.119 160.538 220.702 160.44 221.374 160.44C221.878 160.44 222.387 160.496 222.9 160.608C223.414 160.72 223.838 160.879 224.174 161.084L223.502 162.414C223.148 162.199 222.788 162.055 222.424 161.98C222.07 161.896 221.715 161.854 221.36 161.854C220.828 161.854 220.432 161.933 220.17 162.092C219.918 162.251 219.792 162.451 219.792 162.694C219.792 162.918 219.876 163.086 220.044 163.198C220.212 163.31 220.432 163.399 220.702 163.464C220.973 163.529 221.272 163.585 221.598 163.632C221.934 163.669 222.266 163.73 222.592 163.814C222.919 163.898 223.218 164.015 223.488 164.164C223.768 164.304 223.992 164.505 224.16 164.766C224.328 165.027 224.412 165.368 224.412 165.788C224.412 166.255 224.272 166.661 223.992 167.006C223.722 167.351 223.334 167.622 222.83 167.818C222.326 168.005 221.724 168.098 221.024 168.098ZM228.229 168.098C227.604 168.098 227.002 168.019 226.423 167.86C225.854 167.692 225.401 167.491 225.065 167.258L225.737 165.928C226.073 166.143 226.475 166.32 226.941 166.46C227.408 166.6 227.875 166.67 228.341 166.67C228.892 166.67 229.289 166.595 229.531 166.446C229.783 166.297 229.909 166.096 229.909 165.844C229.909 165.639 229.825 165.485 229.657 165.382C229.489 165.27 229.27 165.186 228.999 165.13C228.729 165.074 228.425 165.023 228.089 164.976C227.763 164.929 227.431 164.869 227.095 164.794C226.769 164.71 226.47 164.593 226.199 164.444C225.929 164.285 225.709 164.075 225.541 163.814C225.373 163.553 225.289 163.207 225.289 162.778C225.289 162.302 225.425 161.891 225.695 161.546C225.966 161.191 226.344 160.921 226.829 160.734C227.324 160.538 227.907 160.44 228.579 160.44C229.083 160.44 229.592 160.496 230.105 160.608C230.619 160.72 231.043 160.879 231.379 161.084L230.707 162.414C230.353 162.199 229.993 162.055 229.629 161.98C229.275 161.896 228.92 161.854 228.565 161.854C228.033 161.854 227.637 161.933 227.375 162.092C227.123 162.251 226.997 162.451 226.997 162.694C226.997 162.918 227.081 163.086 227.249 163.198C227.417 163.31 227.637 163.399 227.907 163.464C228.178 163.529 228.477 163.585 228.803 163.632C229.139 163.669 229.471 163.73 229.797 163.814C230.124 163.898 230.423 164.015 230.693 164.164C230.973 164.304 231.197 164.505 231.365 164.766C231.533 165.027 231.617 165.368 231.617 165.788C231.617 166.255 231.477 166.661 231.197 167.006C230.927 167.351 230.539 167.622 230.035 167.818C229.531 168.005 228.929 168.098 228.229 168.098ZM233.363 168V160.104C233.363 159.32 233.591 158.695 234.049 158.228C234.515 157.752 235.178 157.514 236.037 157.514C236.345 157.514 236.634 157.547 236.905 157.612C237.185 157.677 237.418 157.78 237.605 157.92L237.129 159.236C236.998 159.133 236.849 159.059 236.681 159.012C236.513 158.956 236.34 158.928 236.163 158.928C235.799 158.928 235.523 159.031 235.337 159.236C235.15 159.432 235.057 159.731 235.057 160.132V160.972L235.113 161.756V168H233.363ZM232.131 161.98V160.58H237.115V161.98H232.131ZM241.457 168.098C240.822 168.098 240.262 167.981 239.777 167.748C239.291 167.505 238.913 167.141 238.643 166.656C238.372 166.161 238.237 165.541 238.237 164.794V160.524H239.987V164.556C239.987 165.228 240.136 165.732 240.435 166.068C240.743 166.395 241.177 166.558 241.737 166.558C242.147 166.558 242.502 166.474 242.801 166.306C243.109 166.138 243.347 165.886 243.515 165.55C243.692 165.214 243.781 164.799 243.781 164.304V160.524H245.531V168H243.865V165.984L244.159 166.6C243.907 167.085 243.538 167.459 243.053 167.72C242.567 167.972 242.035 168.098 241.457 168.098ZM247.822 168V157.612H249.572V168H247.822ZM251.869 168V157.612H253.619V168H251.869ZM256.532 170.814C256.168 170.814 255.804 170.753 255.44 170.632C255.076 170.511 254.772 170.343 254.53 170.128L255.23 168.84C255.407 168.999 255.608 169.125 255.832 169.218C256.056 169.311 256.284 169.358 256.518 169.358C256.835 169.358 257.092 169.279 257.288 169.12C257.484 168.961 257.666 168.695 257.834 168.322L258.268 167.342L258.408 167.132L261.236 160.524H262.916L259.416 168.602C259.182 169.162 258.921 169.605 258.632 169.932C258.352 170.259 258.034 170.487 257.68 170.618C257.334 170.749 256.952 170.814 256.532 170.814ZM258.072 168.266L254.698 160.524H256.518L259.262 166.978L258.072 168.266ZM264.104 168.098C263.787 168.098 263.516 167.991 263.292 167.776C263.068 167.552 262.956 167.272 262.956 166.936C262.956 166.581 263.068 166.301 263.292 166.096C263.516 165.881 263.787 165.774 264.104 165.774C264.422 165.774 264.692 165.881 264.916 166.096C265.14 166.301 265.252 166.581 265.252 166.936C265.252 167.272 265.14 167.552 264.916 167.776C264.692 167.991 264.422 168.098 264.104 168.098Z" fill="#222222"/>
<path opacity="0.4" d="M224.251 75.2753C224.669 75.6794 225.331 75.6794 225.749 75.2753C226.046 74.9884 226.48 74.8961 226.868 75.0375C227.414 75.2367 228.02 74.9671 228.237 74.428C228.391 74.0453 228.75 73.7843 229.162 73.7558C229.742 73.7157 230.186 73.223 230.165 72.6422C230.15 72.2298 230.372 71.8452 230.737 71.6518C231.25 71.3793 231.455 70.7488 231.2 70.2266C231.019 69.8558 231.065 69.4142 231.319 69.0892C231.677 68.6315 231.608 67.9722 231.163 67.5989C230.846 67.3339 230.709 66.9115 230.809 66.5112C230.95 65.9474 230.619 65.3732 230.06 65.2135C229.663 65.1 229.366 64.77 229.295 64.3636C229.194 63.7911 228.658 63.4014 228.082 63.4828C227.674 63.5405 227.268 63.3599 227.038 63.0176C226.713 62.5355 226.064 62.3977 225.572 62.7061C225.222 62.925 224.778 62.925 224.428 62.7061C223.936 62.3977 223.287 62.5355 222.962 63.0176C222.732 63.3599 222.326 63.5405 221.918 63.4828C221.342 63.4014 220.806 63.7911 220.705 64.3636C220.634 64.77 220.337 65.1 219.94 65.2135C219.381 65.3732 219.05 65.9474 219.191 66.5112C219.291 66.9115 219.154 67.3339 218.837 67.5989C218.392 67.9722 218.323 68.6315 218.681 69.0892C218.935 69.4142 218.981 69.8558 218.8 70.2266C218.545 70.7488 218.75 71.3793 219.263 71.6518C219.628 71.8452 219.85 72.2298 219.835 72.6422C219.814 73.223 220.258 73.7157 220.838 73.7558C221.25 73.7843 221.609 74.0453 221.763 74.428C221.98 74.9671 222.586 75.2367 223.132 75.0375C223.52 74.8961 223.954 74.9884 224.251 75.2753Z" fill="#D89471"/>
<path opacity="0.4" d="M84.2507 50.2753C84.6685 50.6794 85.3315 50.6794 85.7493 50.2753C86.0459 49.9884 86.4803 49.8961 86.8679 50.0375C87.4139 50.2367 88.0196 49.9671 88.2369 49.428C88.3912 49.0453 88.7504 48.7843 89.1621 48.7558C89.742 48.7157 90.1856 48.223 90.1648 47.6422C90.1501 47.2298 90.3721 46.8452 90.7366 46.6518C91.25 46.3793 91.4549 45.7488 91.1997 45.2266C91.0185 44.8558 91.0649 44.4142 91.3192 44.0892C91.6774 43.6315 91.6081 42.9722 91.1626 42.5989C90.8463 42.3339 90.709 41.9115 90.8092 41.5112C90.9503 40.9474 90.6188 40.3732 90.0599 40.2135C89.6632 40.1 89.366 39.77 89.2947 39.3636C89.1942 38.7911 88.6579 38.4014 88.0824 38.4828C87.6738 38.5405 87.2681 38.3599 87.0376 38.0176C86.713 37.5355 86.0645 37.3977 85.5718 37.7061C85.222 37.925 84.778 37.925 84.4282 37.7061C83.9355 37.3977 83.287 37.5355 82.9624 38.0176C82.7319 38.3599 82.3262 38.5405 81.9176 38.4828C81.3421 38.4014 80.8058 38.7911 80.7053 39.3636C80.634 39.77 80.3368 40.1 79.9401 40.2135C79.3812 40.3732 79.0497 40.9474 79.1908 41.5112C79.291 41.9115 79.1537 42.3339 78.8374 42.5989C78.3919 42.9722 78.3226 43.6315 78.6808 44.0892C78.9351 44.4142 78.9815 44.8558 78.8003 45.2266C78.5451 45.7488 78.75 46.3793 79.2634 46.6518C79.6279 46.8452 79.8499 47.2298 79.8352 47.6422C79.8144 48.223 80.258 48.7157 80.8379 48.7558C81.2496 48.7843 81.6088 49.0453 81.7631 49.428C81.9804 49.9671 82.5861 50.2367 83.1321 50.0375C83.5197 49.8961 83.9541 49.9884 84.2507 50.2753Z" fill="#D89471"/>
<path d="M160.63 46.7106C163.345 44.084 167.655 44.084 170.37 46.7106C172.298 48.5753 175.122 49.1755 177.641 48.2561C181.191 46.9611 185.127 48.7139 186.54 52.2179C187.542 54.7056 189.878 56.4023 192.554 56.5873C196.323 56.8478 199.206 60.0502 199.071 63.8258C198.976 66.5063 200.419 69.0062 202.788 70.2636C206.125 72.0346 207.457 76.1329 205.798 79.5272C204.62 81.937 204.922 84.8078 206.575 86.9202C208.903 89.8954 208.453 94.181 205.557 96.6071C203.501 98.3296 202.609 101.075 203.26 103.677C204.177 107.342 202.022 111.074 198.39 112.112C195.811 112.85 193.879 114.995 193.415 117.637C192.762 121.358 189.276 123.891 185.535 123.362C182.88 122.987 180.242 124.161 178.744 126.386C176.634 129.519 172.419 130.415 169.217 128.411C166.943 126.987 164.057 126.987 161.783 128.411C158.581 130.415 154.366 129.519 152.256 126.386C150.758 124.161 148.12 122.987 145.465 123.362C141.724 123.891 138.238 121.358 137.585 117.637C137.121 114.995 135.189 112.85 132.61 112.112C128.978 111.074 126.823 107.342 127.74 103.677C128.391 101.075 127.499 98.3296 125.443 96.6071C122.547 94.181 122.097 89.8954 124.425 86.9202C126.078 84.8078 126.38 81.937 125.202 79.5272C123.543 76.1329 124.875 72.0346 128.212 70.2636C130.581 69.0062 132.024 66.5063 131.929 63.8258C131.794 60.0502 134.677 56.8478 138.446 56.5873C141.122 56.4023 143.458 54.7056 144.46 52.2179C145.873 48.7138 149.809 46.9611 153.359 48.2561C155.878 49.1755 158.702 48.5753 160.63 46.7106Z" fill="#D89471"/>
<path d="M146.161 86.9481L157.806 100.794C158.162 101.216 158.793 101.271 159.215 100.915L188.213 76.5257" stroke="white" stroke-width="4"/>
<path opacity="0.4" d="M171.125 32.6376C171.334 32.8397 171.666 32.8397 171.875 32.6376C172.023 32.4942 172.24 32.448 172.434 32.5188C172.707 32.6184 173.01 32.4836 173.118 32.214C173.196 32.0226 173.375 31.8921 173.581 31.8779C173.871 31.8579 174.093 31.6115 174.082 31.3211C174.075 31.1149 174.186 30.9226 174.368 30.8259C174.625 30.6896 174.727 30.3744 174.6 30.1133C174.509 29.9279 174.532 29.7071 174.66 29.5446C174.839 29.3157 174.804 28.9861 174.581 28.7995C174.423 28.667 174.355 28.4558 174.405 28.2556C174.475 27.9737 174.309 27.6866 174.03 27.6067C173.832 27.55 173.683 27.385 173.647 27.1818C173.597 26.8955 173.329 26.7007 173.041 26.7414C172.837 26.7703 172.634 26.6799 172.519 26.5088C172.356 26.2677 172.032 26.1988 171.786 26.353C171.611 26.4625 171.389 26.4625 171.214 26.353C170.968 26.1988 170.644 26.2677 170.481 26.5088C170.366 26.68 170.163 26.7703 169.959 26.7414C169.671 26.7007 169.403 26.8955 169.353 27.1818C169.317 27.385 169.168 27.55 168.97 27.6067C168.691 27.6866 168.525 27.9737 168.595 28.2556C168.645 28.4558 168.577 28.667 168.419 28.7995C168.196 28.9861 168.161 29.3157 168.34 29.5446C168.468 29.7071 168.491 29.9279 168.4 30.1133C168.273 30.3744 168.375 30.6896 168.632 30.8259C168.814 30.9226 168.925 31.1149 168.918 31.3211C168.907 31.6115 169.129 31.8579 169.419 31.8779C169.625 31.8921 169.804 32.0226 169.882 32.214C169.99 32.4836 170.293 32.6184 170.566 32.5188C170.76 32.448 170.977 32.4942 171.125 32.6376Z" fill="#D89471"/>
<path opacity="0.4" d="M99.9113 127.431C100.24 127.748 100.76 127.748 101.089 127.431C101.322 127.205 101.663 127.133 101.968 127.244C102.397 127.4 102.873 127.188 103.043 126.765C103.164 126.464 103.447 126.259 103.77 126.237C104.226 126.205 104.574 125.818 104.558 125.362C104.546 125.038 104.721 124.736 105.007 124.584C105.411 124.369 105.572 123.874 105.371 123.464C105.229 123.172 105.265 122.825 105.465 122.57C105.747 122.21 105.692 121.692 105.342 121.399C105.094 121.191 104.986 120.859 105.064 120.545C105.175 120.102 104.915 119.65 104.476 119.525C104.164 119.436 103.93 119.176 103.874 118.857C103.795 118.407 103.374 118.101 102.922 118.165C102.601 118.21 102.282 118.068 102.101 117.8C101.846 117.421 101.336 117.312 100.949 117.555C100.674 117.727 100.326 117.727 100.051 117.555C99.6636 117.312 99.1541 117.421 98.899 117.8C98.7179 118.068 98.3992 118.21 98.0781 118.165C97.626 118.101 97.2045 118.407 97.1256 118.857C97.0696 119.176 96.8361 119.436 96.5243 119.525C96.0852 119.65 95.8248 120.102 95.9356 120.545C96.0143 120.859 95.9065 121.191 95.658 121.399C95.3079 121.692 95.2534 122.21 95.5349 122.57C95.7347 122.825 95.7712 123.172 95.6288 123.464C95.4283 123.874 95.5893 124.369 95.9926 124.584C96.279 124.736 96.4535 125.038 96.4419 125.362C96.4256 125.818 96.7742 126.205 97.2298 126.237C97.5532 126.259 97.8355 126.464 97.9567 126.765C98.1275 127.188 98.6033 127.4 99.0324 127.244C99.3369 127.133 99.6782 127.205 99.9113 127.431Z" fill="#D89471"/>
<path opacity="0.4" d="M95.1254 82.6376C95.3343 82.8397 95.6657 82.8397 95.8746 82.6376C96.0229 82.4942 96.2401 82.448 96.434 82.5188C96.707 82.6184 97.0098 82.4836 97.1184 82.214C97.1956 82.0226 97.3752 81.8921 97.5811 81.8779C97.871 81.8579 98.0928 81.6115 98.0824 81.3211C98.075 81.1149 98.1861 80.9226 98.3683 80.8259C98.625 80.6896 98.7275 80.3744 98.5998 80.1133C98.5093 79.9279 98.5325 79.7071 98.6596 79.5446C98.8387 79.3157 98.8041 78.9861 98.5813 78.7995C98.4231 78.667 98.3545 78.4558 98.4046 78.2556C98.4751 77.9737 98.3094 77.6866 98.03 77.6067C97.8316 77.55 97.683 77.385 97.6473 77.1818C97.5971 76.8955 97.3289 76.7007 97.0412 76.7414C96.8369 76.7703 96.634 76.6799 96.5188 76.5088C96.3565 76.2677 96.0322 76.1988 95.7859 76.353C95.611 76.4625 95.389 76.4625 95.2141 76.353C94.9678 76.1988 94.6435 76.2677 94.4812 76.5088C94.366 76.68 94.1631 76.7703 93.9588 76.7414C93.6711 76.7007 93.4029 76.8955 93.3527 77.1818C93.317 77.385 93.1684 77.55 92.97 77.6067C92.6906 77.6866 92.5249 77.9737 92.5954 78.2556C92.6455 78.4558 92.5769 78.667 92.4187 78.7995C92.1959 78.9861 92.1613 79.3157 92.3404 79.5446C92.4675 79.7071 92.4907 79.9279 92.4002 80.1133C92.2725 80.3744 92.375 80.6896 92.6317 80.8259C92.8139 80.9226 92.925 81.1149 92.9176 81.3211C92.9072 81.6115 93.129 81.8579 93.4189 81.8779C93.6248 81.8921 93.8044 82.0226 93.8816 82.214C93.9902 82.4836 94.293 82.6184 94.566 82.5188C94.7599 82.448 94.9771 82.4942 95.1254 82.6376Z" fill="#D89471"/>
<path opacity="0.4" d="M205.125 112.638C205.334 112.84 205.666 112.84 205.875 112.638C206.023 112.494 206.24 112.448 206.434 112.519C206.707 112.618 207.01 112.484 207.118 112.214C207.196 112.023 207.375 111.892 207.581 111.878C207.871 111.858 208.093 111.612 208.082 111.321C208.075 111.115 208.186 110.923 208.368 110.826C208.625 110.69 208.727 110.374 208.6 110.113C208.509 109.928 208.532 109.707 208.66 109.545C208.839 109.316 208.804 108.986 208.581 108.799C208.423 108.667 208.355 108.456 208.405 108.256C208.475 107.974 208.309 107.687 208.03 107.607C207.832 107.55 207.683 107.385 207.647 107.182C207.597 106.896 207.329 106.701 207.041 106.741C206.837 106.77 206.634 106.68 206.519 106.509C206.356 106.268 206.032 106.199 205.786 106.353C205.611 106.463 205.389 106.463 205.214 106.353C204.968 106.199 204.644 106.268 204.481 106.509C204.366 106.68 204.163 106.77 203.959 106.741C203.671 106.701 203.403 106.896 203.353 107.182C203.317 107.385 203.168 107.55 202.97 107.607C202.691 107.687 202.525 107.974 202.595 108.256C202.645 108.456 202.577 108.667 202.419 108.799C202.196 108.986 202.161 109.316 202.34 109.545C202.468 109.707 202.491 109.928 202.4 110.113C202.273 110.374 202.375 110.69 202.632 110.826C202.814 110.923 202.925 111.115 202.918 111.321C202.907 111.612 203.129 111.858 203.419 111.878C203.625 111.892 203.804 112.023 203.882 112.214C203.99 112.484 204.293 112.618 204.566 112.519C204.76 112.448 204.977 112.494 205.125 112.638Z" fill="#D89471"/>
</svg>
