<svg width="14" height="14" viewBox="0 0 14 14" fill="none" xmlns="http://www.w3.org/2000/svg">
<path d="M13.5938 12.9311L10.0538 9.3911C10.9044 8.36984 11.3286 7.05993 11.2381 5.73387C11.1476 4.4078 10.5493 3.16769 9.56778 2.2715C8.58621 1.37531 7.29692 0.89204 5.96811 0.922233C4.63931 0.952426 3.3733 1.49375 2.43345 2.4336C1.4936 3.37345 0.952273 4.63946 0.92208 5.96827C0.891887 7.29707 1.37515 8.58636 2.27134 9.56793C3.16754 10.5495 4.40765 11.1478 5.73371 11.2383C7.05978 11.3288 8.36969 10.9046 9.39095 10.0539L12.9309 13.5939L13.5938 12.9311ZM1.87501 6.09391C1.87501 5.25952 2.12243 4.44387 2.586 3.7501C3.04956 3.05633 3.70844 2.5156 4.47931 2.19629C5.25019 1.87699 6.09844 1.79344 6.9168 1.95622C7.73515 2.119 8.48686 2.5208 9.07687 3.1108C9.66687 3.70081 10.0687 4.45252 10.2314 5.27087C10.3942 6.08923 10.3107 6.93748 9.99138 7.70836C9.67207 8.47923 9.13134 9.13811 8.43757 9.60167C7.7438 10.0652 6.92815 10.3127 6.09376 10.3127C4.97526 10.3114 3.90292 9.86655 3.11202 9.07565C2.32112 8.28475 1.87625 7.21241 1.87501 6.09391Z" fill="white"/>
</svg>
