<svg width="16" height="16" viewBox="0 0 16 16" fill="none" xmlns="http://www.w3.org/2000/svg">
<g clip-path="url(#clip0_1383_307)">
<path d="M5 3.00122V4.00122H14.5V5.98075L13.3906 9.50122H4.68538L3.43537 0.5H0.5V1.5H2.56463L3.81463 10.5012H14.124L15.5 6.13456V3.00122H5Z" fill="white"/>
<path d="M5.53076 11.5107C5.00051 11.5113 4.49216 11.7223 4.11721 12.0972C3.74227 12.4721 3.53137 12.9805 3.53076 13.5107C3.53076 14.0412 3.74148 14.5499 4.11655 14.925C4.49162 15.3 5.00033 15.5107 5.53076 15.5107C6.06119 15.5107 6.5699 15.3 6.94498 14.925C7.32005 14.5499 7.53076 14.0412 7.53076 13.5107C7.53017 12.9805 7.31926 12.4721 6.94432 12.0972C6.56937 11.7222 6.06101 11.5113 5.53076 11.5107ZM5.53076 14.5107C5.33298 14.5107 5.13964 14.4521 4.97519 14.3422C4.81074 14.2323 4.68257 14.0762 4.60688 13.8934C4.53119 13.7107 4.51139 13.5096 4.54998 13.3157C4.58856 13.1217 4.6838 12.9435 4.82365 12.8036C4.96351 12.6638 5.14169 12.5685 5.33567 12.53C5.52965 12.4914 5.73072 12.5112 5.91345 12.5869C6.09617 12.6626 6.25235 12.7907 6.36223 12.9552C6.47211 13.1196 6.53076 13.313 6.53076 13.5107C6.53045 13.7759 6.42499 14.03 6.23752 14.2175C6.05005 14.405 5.79588 14.5104 5.53076 14.5107Z" fill="white"/>
<path d="M12.5308 11.5107C12.0005 11.5113 11.4922 11.7223 11.1172 12.0972C10.7423 12.4721 10.5314 12.9805 10.5308 13.5107C10.5308 14.0412 10.7415 14.5499 11.1165 14.925C11.4916 15.3 12.0003 15.5107 12.5308 15.5107C13.0612 15.5107 13.5699 15.3 13.945 14.925C14.32 14.5499 14.5308 14.0412 14.5308 13.5107C14.5302 12.9805 14.3193 12.4721 13.9443 12.0972C13.5694 11.7222 13.061 11.5113 12.5308 11.5107ZM12.5308 14.5107C12.333 14.5107 12.1396 14.4521 11.9752 14.3422C11.8107 14.2323 11.6826 14.0762 11.6069 13.8934C11.5312 13.7107 11.5114 13.5096 11.55 13.3157C11.5886 13.1217 11.6838 12.9435 11.8237 12.8036C11.9635 12.6638 12.1417 12.5685 12.3357 12.53C12.5297 12.4914 12.7307 12.5112 12.9134 12.5869C13.0962 12.6626 13.2523 12.7907 13.3622 12.9552C13.4721 13.1196 13.5308 13.313 13.5308 13.5107C13.5304 13.7759 13.425 14.03 13.2375 14.2175C13.0501 14.405 12.7959 14.5104 12.5308 14.5107Z" fill="white"/>
</g>
<defs>
<clipPath id="clip0_1383_307">
<rect width="16" height="16" fill="white"/>
</clipPath>
</defs>
</svg>
