<svg width="61" height="14" viewBox="0 0 61 14" fill="none" xmlns="http://www.w3.org/2000/svg">
<path d="M12.852 6.484C12.852 8.956 12.156 10.678 10.764 11.65C9.48 12.55 7.716 13 5.472 13H0.378V12.658H1.566V0.741999H0.378V0.399999H5.94C8.244 0.399999 9.972 0.873999 11.124 1.822C12.276 2.758 12.852 4.312 12.852 6.484ZM5.076 12.658H5.76C6.972 12.658 7.836 12.232 8.352 11.38C8.88 10.516 9.144 9.076 9.144 7.06V6.016C9.144 3.316 8.628 1.69 7.596 1.138C7.104 0.873999 6.408 0.741999 5.508 0.741999H5.076V12.658ZM18.5019 13.18C16.9539 13.18 15.7899 12.784 15.0099 11.992C14.2419 11.188 13.8579 10.078 13.8579 8.662C13.8579 7.234 14.2899 6.142 15.1539 5.386C16.0299 4.63 17.1399 4.252 18.4839 4.252C21.2079 4.252 22.5159 5.62 22.4079 8.356H17.3319V9.058C17.3319 10.234 17.4819 11.122 17.7819 11.722C18.0819 12.322 18.6039 12.622 19.3479 12.622C20.7399 12.622 21.6519 11.878 22.0839 10.39L22.4079 10.444C22.1799 11.308 21.7659 11.98 21.1659 12.46C20.5779 12.94 19.6899 13.18 18.5019 13.18ZM17.3499 7.996H19.2039V7.114C19.2039 6.142 19.1439 5.482 19.0239 5.134C18.9159 4.774 18.6879 4.594 18.3399 4.594C18.0039 4.594 17.7519 4.786 17.5839 5.17C17.4279 5.542 17.3499 6.19 17.3499 7.114V7.996ZM23.0851 4.432H27.4231V6.088C27.6151 5.536 27.9091 5.092 28.3051 4.756C28.7011 4.42 29.3011 4.252 30.1051 4.252C31.9651 4.252 32.8951 5.254 32.8951 7.258V12.676H33.9031V13H28.8091V12.676H29.5471V6.826C29.5471 6.106 29.4991 5.644 29.4031 5.44C29.3071 5.224 29.1331 5.116 28.8811 5.116C28.4971 5.116 28.1551 5.368 27.8551 5.872C27.5671 6.376 27.4231 6.988 27.4231 7.708V12.676H28.1971V13H23.0851V12.676H24.0751V4.756H23.0851V4.432ZM33.0645 4.756V4.432H38.4465V4.756H37.3125L39.4725 10.732L41.4165 4.756H40.2105V4.432H42.6405V4.756H41.8485L39.1845 13H37.1325L33.8025 4.756H33.0645ZM47.1015 13.18C45.5535 13.18 44.3895 12.784 43.6095 11.992C42.8415 11.188 42.4575 10.078 42.4575 8.662C42.4575 7.234 42.8895 6.142 43.7535 5.386C44.6295 4.63 45.7395 4.252 47.0835 4.252C49.8075 4.252 51.1155 5.62 51.0075 8.356H45.9315V9.058C45.9315 10.234 46.0815 11.122 46.3815 11.722C46.6815 12.322 47.2035 12.622 47.9475 12.622C49.3395 12.622 50.2515 11.878 50.6835 10.39L51.0075 10.444C50.7795 11.308 50.3655 11.98 49.7655 12.46C49.1775 12.94 48.2895 13.18 47.1015 13.18ZM45.9495 7.996H47.8035V7.114C47.8035 6.142 47.7435 5.482 47.6235 5.134C47.5155 4.774 47.2875 4.594 46.9395 4.594C46.6035 4.594 46.3515 4.786 46.1835 5.17C46.0275 5.542 45.9495 6.19 45.9495 7.114V7.996ZM57.6608 4.936C57.2168 4.936 56.8268 5.224 56.4908 5.8C56.1548 6.376 55.9868 7.06 55.9868 7.852V12.676H57.2648V13H51.6488V12.676H52.6388V4.756H51.6488V4.432H55.9868V6.16C56.1428 5.548 56.4428 5.08 56.8868 4.756C57.3308 4.42 57.8348 4.252 58.3988 4.252C58.9628 4.252 59.4188 4.414 59.7668 4.738C60.1268 5.05 60.3068 5.5 60.3068 6.088C60.3068 6.664 60.1748 7.108 59.9108 7.42C59.6468 7.732 59.2388 7.888 58.6868 7.888C58.1468 7.888 57.7448 7.708 57.4808 7.348C57.2288 6.988 57.1988 6.49 57.3908 5.854H58.0388C58.3388 5.242 58.2128 4.936 57.6608 4.936Z" fill="white"/>
</svg>
