<svg width="40" height="40" viewBox="0 0 40 40" fill="none" xmlns="http://www.w3.org/2000/svg">
<g clip-path="url(#clip0_1364_165)">
<mask id="mask0_1364_165" style="mask-type:luminance" maskUnits="userSpaceOnUse" x="0" y="5" width="40" height="30">
<path d="M37.1429 5.71387H2.85714C1.27919 5.71387 0 6.99305 0 8.57101V31.4282C0 33.0061 1.27919 34.2853 2.85714 34.2853H37.1429C38.7208 34.2853 40 33.0061 40 31.4282V8.57101C40 6.99305 38.7208 5.71387 37.1429 5.71387Z" fill="white"/>
</mask>
<g mask="url(#mask0_1364_165)">
<path d="M37.1429 5.71387H2.85714C1.27919 5.71387 0 6.99305 0 8.57101V31.4282C0 33.0061 1.27919 34.2853 2.85714 34.2853H37.1429C38.7208 34.2853 40 33.0061 40 31.4282V8.57101C40 6.99305 38.7208 5.71387 37.1429 5.71387Z" fill="white"/>
<mask id="mask1_1364_165" style="mask-type:alpha" maskUnits="userSpaceOnUse" x="0" y="5" width="40" height="30">
<path d="M37.1429 5.71387H2.85714C1.27919 5.71387 0 6.99305 0 8.57101V31.4282C0 33.0061 1.27919 34.2853 2.85714 34.2853H37.1429C38.7208 34.2853 40 33.0061 40 31.4282V8.57101C40 6.99305 38.7208 5.71387 37.1429 5.71387Z" fill="white"/>
</mask>
<g mask="url(#mask1_1364_165)">
<path fill-rule="evenodd" clip-rule="evenodd" d="M40 5.71387H0V7.61862H40V5.71387ZM40 9.5234H0V11.4282H40V9.5234ZM0 13.3329H40V15.2377H0V13.3329ZM40 17.1424H0V19.0472H40V17.1424ZM0 20.952H40V22.8567H0V20.952ZM40 24.7614H0V26.6663H40V24.7614ZM0 28.571H40V30.4757H0V28.571ZM40 32.3806H0V34.2853H40V32.3806Z" fill="#D02F44"/>
<path d="M17.1429 5.71387H0V19.0472H17.1429V5.71387Z" fill="#46467F"/>
<g filter="url(#filter0_d_1364_165)">
<path fill-rule="evenodd" clip-rule="evenodd" d="M3.8095 8.57054C3.8095 9.09652 3.3831 9.52292 2.85711 9.52292C2.33112 9.52292 1.90472 9.09652 1.90472 8.57054C1.90472 8.04456 2.33112 7.61816 2.85711 7.61816C3.3831 7.61816 3.8095 8.04456 3.8095 8.57054ZM7.61901 8.57054C7.61901 9.09652 7.19262 9.52292 6.66664 9.52292C6.14065 9.52292 5.71425 9.09652 5.71425 8.57054C5.71425 8.04456 6.14065 7.61816 6.66664 7.61816C7.19262 7.61816 7.61901 8.04456 7.61901 8.57054ZM10.4762 9.52292C11.0021 9.52292 11.4285 9.09652 11.4285 8.57054C11.4285 8.04456 11.0021 7.61816 10.4762 7.61816C9.95017 7.61816 9.52378 8.04456 9.52378 8.57054C9.52378 9.09652 9.95017 9.52292 10.4762 9.52292ZM15.238 8.57054C15.238 9.09652 14.8117 9.52292 14.2857 9.52292C13.7597 9.52292 13.3333 9.09652 13.3333 8.57054C13.3333 8.04456 13.7597 7.61816 14.2857 7.61816C14.8117 7.61816 15.238 8.04456 15.238 8.57054ZM4.76187 11.4277C5.28785 11.4277 5.71425 11.0013 5.71425 10.4753C5.71425 9.94932 5.28785 9.52292 4.76187 9.52292C4.23588 9.52292 3.8095 9.94932 3.8095 10.4753C3.8095 11.0013 4.23588 11.4277 4.76187 11.4277ZM9.52378 10.4753C9.52378 11.0013 9.09738 11.4277 8.57139 11.4277C8.04541 11.4277 7.61901 11.0013 7.61901 10.4753C7.61901 9.94932 8.04541 9.52292 8.57139 9.52292C9.09738 9.52292 9.52378 9.94932 9.52378 10.4753ZM12.3809 11.4277C12.9069 11.4277 13.3333 11.0013 13.3333 10.4753C13.3333 9.94932 12.9069 9.52292 12.3809 9.52292C11.8549 9.52292 11.4285 9.94932 11.4285 10.4753C11.4285 11.0013 11.8549 11.4277 12.3809 11.4277ZM15.238 12.3801C15.238 12.906 14.8117 13.3324 14.2857 13.3324C13.7597 13.3324 13.3333 12.906 13.3333 12.3801C13.3333 11.8541 13.7597 11.4277 14.2857 11.4277C14.8117 11.4277 15.238 11.8541 15.238 12.3801ZM10.4762 13.3324C11.0021 13.3324 11.4285 12.906 11.4285 12.3801C11.4285 11.8541 11.0021 11.4277 10.4762 11.4277C9.95017 11.4277 9.52378 11.8541 9.52378 12.3801C9.52378 12.906 9.95017 13.3324 10.4762 13.3324ZM7.61901 12.3801C7.61901 12.906 7.19262 13.3324 6.66664 13.3324C6.14065 13.3324 5.71425 12.906 5.71425 12.3801C5.71425 11.8541 6.14065 11.4277 6.66664 11.4277C7.19262 11.4277 7.61901 11.8541 7.61901 12.3801ZM2.85711 13.3324C3.3831 13.3324 3.8095 12.906 3.8095 12.3801C3.8095 11.8541 3.3831 11.4277 2.85711 11.4277C2.33112 11.4277 1.90472 11.8541 1.90472 12.3801C1.90472 12.906 2.33112 13.3324 2.85711 13.3324ZM5.71425 14.2848C5.71425 14.8108 5.28785 15.2372 4.76187 15.2372C4.23588 15.2372 3.8095 14.8108 3.8095 14.2848C3.8095 13.7588 4.23588 13.3324 4.76187 13.3324C5.28785 13.3324 5.71425 13.7588 5.71425 14.2848ZM8.57139 15.2372C9.09738 15.2372 9.52378 14.8108 9.52378 14.2848C9.52378 13.7588 9.09738 13.3324 8.57139 13.3324C8.04541 13.3324 7.61901 13.7588 7.61901 14.2848C7.61901 14.8108 8.04541 15.2372 8.57139 15.2372ZM13.3333 14.2848C13.3333 14.8108 12.9069 15.2372 12.3809 15.2372C11.8549 15.2372 11.4285 14.8108 11.4285 14.2848C11.4285 13.7588 11.8549 13.3324 12.3809 13.3324C12.9069 13.3324 13.3333 13.7588 13.3333 14.2848ZM14.2857 17.142C14.8117 17.142 15.238 16.7156 15.238 16.1896C15.238 15.6636 14.8117 15.2372 14.2857 15.2372C13.7597 15.2372 13.3333 15.6636 13.3333 16.1896C13.3333 16.7156 13.7597 17.142 14.2857 17.142ZM11.4285 16.1896C11.4285 16.7156 11.0021 17.142 10.4762 17.142C9.95017 17.142 9.52378 16.7156 9.52378 16.1896C9.52378 15.6636 9.95017 15.2372 10.4762 15.2372C11.0021 15.2372 11.4285 15.6636 11.4285 16.1896ZM6.66664 17.142C7.19262 17.142 7.61901 16.7156 7.61901 16.1896C7.61901 15.6636 7.19262 15.2372 6.66664 15.2372C6.14065 15.2372 5.71425 15.6636 5.71425 16.1896C5.71425 16.7156 6.14065 17.142 6.66664 17.142ZM3.8095 16.1896C3.8095 16.7156 3.3831 17.142 2.85711 17.142C2.33112 17.142 1.90472 16.7156 1.90472 16.1896C1.90472 15.6636 2.33112 15.2372 2.85711 15.2372C3.3831 15.2372 3.8095 15.6636 3.8095 16.1896Z" fill="url(#paint0_linear_1364_165)"/>
</g>
</g>
</g>
</g>
<defs>
<filter id="filter0_d_1364_165" x="1.90472" y="7.61816" width="13.3333" height="11.6663" filterUnits="userSpaceOnUse" color-interpolation-filters="sRGB">
<feFlood flood-opacity="0" result="BackgroundImageFix"/>
<feColorMatrix in="SourceAlpha" type="matrix" values="0 0 0 0 0 0 0 0 0 0 0 0 0 0 0 0 0 0 127 0" result="hardAlpha"/>
<feOffset dy="2.14286"/>
<feColorMatrix type="matrix" values="0 0 0 0 0 0 0 0 0 0 0 0 0 0 0 0 0 0 0.06 0"/>
<feBlend mode="normal" in2="BackgroundImageFix" result="effect1_dropShadow_1364_165"/>
<feBlend mode="normal" in="SourceGraphic" in2="effect1_dropShadow_1364_165" result="shape"/>
</filter>
<linearGradient id="paint0_linear_1364_165" x1="1.90472" y1="7.61816" x2="1.90472" y2="17.142" gradientUnits="userSpaceOnUse">
<stop stop-color="white"/>
<stop offset="1" stop-color="#F0F0F0"/>
</linearGradient>
<clipPath id="clip0_1364_165">
<rect width="40" height="40" fill="white"/>
</clipPath>
</defs>
</svg>
